<?xml version="1.0" encoding="UTF-8"?>
<svg height="16" width="16" viewBox="0 0 32 32" version="1.1" xmlns="http://www.w3.org/2000/svg">
  <path
      d="m 2.2834674,11.748212 c 0,0 -0.6822964,-0.497141 0.1364724,-1.16095 L 4.3275229,8.8630766 c 0,0 0.5458391,-0.5804769 1.1229482,-0.074711 L 23.053731,22.260001 v 6.459952 c 0,0 -0.0087,1.014396 -1.296362,0.902322 z"
      fill="#2489ca"
  />
  <path
      d="m 6.8207418,15.912121 -4.5372744,4.169658 c 0,0 -0.4662371,0.350583 0,0.977035 l 2.1065917,1.936836 c 0,0 0.5003492,0.54312 1.2395037,-0.07472 l 4.8101952,-3.68688 z"
      fill="#1070b3"
  />
  <path
      d="m 14.786559,15.946604 8.321179,-6.422589 -0.054,-6.4254648 c 0,0 -0.355365,-1.4023392 -1.540857,-0.6724336 L 10.439764,12.613179 Z"
      fill="#0877b9"
  />
  <path
      d="m 21.757358,29.630894 c 0.483292,0.500011 1.068931,0.336212 1.068931,0.336212 l 6.484663,-3.229969 c 0.830128,-0.571858 0.713569,-1.281648 0.713569,-1.281648 V 6.1676011 c 0,-0.8477257 -0.858556,-1.1408381 -0.858556,-1.1408381 L 23.545545,2.2881813 C 22.31741,1.5209189 21.512868,2.426118 21.512868,2.426118 c 0,0 1.034818,-0.7528926 1.540852,0.6724335 V 28.60213 c 0,0.175303 -0.03695,0.34771 -0.110861,0.502888 -0.147823,0.301733 -0.469078,0.583349 -1.239504,0.465529 z"
      fill="#3c99d4"
  />
</svg>
